<?xml version="1.0" standalone="no"?>
<!DOCTYPE svg PUBLIC "-//W3C//DTD SVG 20010904//EN"
 "http://www.w3.org/TR/2001/REC-SVG-20010904/DTD/svg10.dtd">
<svg version="1.0" xmlns="http://www.w3.org/2000/svg"
 width="1000.000000pt" height="1000.000000pt" viewBox="0 0 1000.000000 1000.000000"
 preserveAspectRatio="xMidYMid meet">
<metadata>
Created by potrace 1.14, written by Peter Selinger 2001-2017
</metadata>
<g transform="translate(0.000000,1000.000000) scale(0.100000,-0.100000)"
fill="#000000" stroke="none">
<path d="M0 5000 l0 -5000 5000 0 5000 0 0 5000 0 5000 -5000 0 -5000 0 0
-5000z m5470 4065 c1017 -136 1900 -629 2521 -1407 456 -571 725 -1231 805
-1973 20 -191 23 -603 6 -775 -62 -598 -239 -1115 -554 -1618 l-89 -142 35
-43 c56 -69 140 -209 179 -299 293 -681 18 -1464 -634 -1808 -105 -55 -260
-109 -389 -137 -117 -25 -399 -25 -523 0 -378 76 -696 289 -909 607 -39 58
-71 106 -72 107 -1 1 -55 -9 -121 -22 -257 -50 -369 -60 -710 -60 -254 0 -348
4 -455 18 -1053 142 -1967 673 -2592 1504 -261 347 -476 776 -594 1185 -79
276 -109 448 -150 859 -28 286 -28 386 2 649 143 1265 947 2405 2106 2986 420
211 856 333 1368 384 139 14 627 5 770 -15z"/>
<path d="M4730 8834 c-875 -77 -1626 -428 -2237 -1045 -215 -218 -378 -426
-527 -674 -515 -854 -647 -1868 -370 -2825 71 -243 204 -555 331 -775 310
-536 744 -980 1259 -1290 438 -264 900 -418 1454 -487 135 -17 631 -17 760 0
189 24 350 55 350 67 0 6 -6 34 -14 61 -62 209 -68 475 -16 691 10 43 18 79
17 80 -1 1 -56 -12 -121 -28 -396 -96 -808 -86 -1281 33 -584 146 -1064 447
-1420 891 -260 324 -473 746 -564 1118 -45 187 -62 314 -68 524 -8 256 17 495
77 743 36 150 28 187 -60 288 -136 155 -138 402 -6 582 107 145 235 204 436
199 89 -2 110 1 135 17 17 10 104 94 195 185 248 251 454 407 720 545 743 384
1697 391 2460 18 143 -71 355 -206 485 -312 119 -95 358 -339 464 -472 112
-141 135 -158 223 -158 154 0 259 -42 351 -139 89 -95 147 -226 147 -333 0
-105 -52 -235 -125 -311 -60 -63 -85 -105 -85 -142 0 -16 9 -77 19 -135 60
-330 53 -726 -20 -1055 -78 -353 -232 -704 -436 -991 l-43 -62 57 -7 c215 -27
495 -143 662 -275 29 -23 54 -40 55 -38 20 25 129 212 175 299 470 891 539
1974 184 2914 -55 146 -180 408 -258 541 -572 975 -1508 1590 -2645 1740 -119
15 -607 28 -720 18z"/>
<path d="M4835 7784 c-626 -64 -1112 -280 -1524 -679 -107 -104 -241 -254
-241 -270 0 -4 13 -29 29 -55 75 -121 105 -275 77 -393 -51 -216 -220 -357
-460 -382 -93 -10 -107 -26 -135 -146 -49 -208 -64 -351 -65 -589 0 -240 12
-355 59 -555 104 -444 372 -922 700 -1250 455 -456 1052 -687 1780 -687 279 0
519 31 722 93 60 19 64 22 99 82 200 345 550 591 948 668 55 11 103 23 106 27
3 4 37 50 76 102 107 143 207 307 294 485 109 221 167 403 207 646 25 151 25
608 0 768 -29 184 -43 203 -169 227 -146 28 -253 103 -316 222 -97 185 -88
352 28 522 l42 61 -28 42 c-66 101 -156 210 -264 320 -209 215 -393 348 -665
482 -354 175 -673 252 -1070 259 -104 2 -208 2 -230 0z m897 -675 c78 -25 147
-75 192 -137 36 -49 76 -154 76 -199 0 -75 20 -103 196 -278 134 -134 186
-193 243 -278 324 -490 366 -1069 119 -1632 -152 -346 -440 -655 -758 -815
-253 -127 -626 -196 -919 -170 -417 37 -753 192 -1042 480 -69 69 -153 163
-187 210 -70 97 -92 113 -198 140 -94 24 -147 54 -203 115 -48 53 -75 108 -92
195 -21 106 10 206 96 310 25 30 50 71 55 90 5 19 13 109 19 200 19 279 74
486 192 720 303 597 919 943 1629 913 l115 -5 45 31 c25 17 67 46 94 66 91 66
212 83 328 44z"/>
<path d="M5529 6874 c-41 -27 -62 -71 -63 -134 -1 -71 20 -105 81 -132 113
-50 213 18 213 145 0 51 -4 61 -34 94 -32 35 -38 37 -102 40 -52 3 -76 -1 -95
-13z"/>
<path d="M4760 6710 c-291 -52 -549 -188 -765 -405 -266 -265 -406 -578 -422
-941 -3 -78 -3 -152 0 -165 4 -17 22 -32 54 -48 69 -33 165 -104 195 -143 94
-123 98 -235 14 -402 -52 -103 -54 -93 42 -222 79 -106 220 -238 340 -318 441
-294 958 -328 1456 -97 462 214 757 664 806 1229 32 365 -83 710 -336 1012
-67 81 -174 187 -214 214 -36 24 -59 20 -146 -21 -67 -32 -90 -38 -163 -41
-114 -5 -179 18 -262 95 -47 44 -69 75 -104 148 -26 55 -54 98 -69 108 -36 24
-283 22 -426 -3z m360 -795 c77 -10 167 -45 242 -94 256 -168 364 -471 265
-744 -37 -100 -84 -171 -168 -252 -133 -127 -305 -193 -474 -182 -318 22 -578
284 -601 606 -8 101 14 203 67 311 34 69 58 101 128 170 117 116 224 170 373
189 62 8 78 8 168 -4z"/>
<path d="M4948 5680 c-123 -21 -227 -100 -285 -218 -37 -73 -38 -80 -38 -182
0 -99 2 -109 33 -172 42 -85 105 -148 190 -190 63 -31 72 -33 177 -33 104 0
114 2 176 32 125 62 214 192 226 330 18 213 -128 398 -338 433 -71 11 -74 11
-141 0z"/>
<path d="M3473 4918 c-50 -53 -83 -109 -83 -140 0 -47 25 -84 70 -102 52 -21
85 -20 136 3 79 36 83 110 9 210 -54 74 -83 80 -132 29z"/>
<path d="M2605 6744 c-102 -36 -165 -131 -165 -246 0 -79 14 -119 61 -173 93
-105 270 -114 372 -17 78 74 101 205 53 301 -62 121 -198 179 -321 135z"/>
<path d="M7375 6571 c-100 -26 -167 -102 -180 -207 -26 -193 177 -332 347
-237 127 71 164 222 85 340 -55 82 -164 127 -252 104z"/>
<path d="M6995 3384 c-273 -290 -632 -527 -1005 -664 -73 -27 -75 -29 -93 -76
-54 -142 -78 -376 -58 -544 12 -98 47 -249 60 -263 13 -13 441 133 473 162 4
4 1 31 -7 61 -65 245 13 526 196 710 148 147 310 213 524 214 167 1 308 -42
433 -131 26 -18 52 -33 58 -33 23 0 324 349 324 375 0 6 -28 32 -62 57 -202
146 -422 229 -651 243 l-82 5 -110 -116z"/>
<path d="M6680 3434 c-91 -31 -249 -114 -331 -175 -88 -65 -191 -164 -248
-237 -32 -41 -32 -42 -7 -32 81 31 280 150 401 240 104 78 261 220 243 220 -7
-1 -33 -8 -58 -16z"/>
<path d="M7988 2928 c-41 -51 -116 -139 -167 -196 l-92 -102 31 -65 c99 -207
94 -449 -12 -665 -33 -68 -59 -102 -132 -176 -101 -101 -181 -152 -304 -191
-106 -35 -269 -42 -378 -18 -149 32 -308 123 -402 230 l-40 45 -114 -44 c-63
-24 -173 -63 -246 -86 -73 -23 -132 -44 -132 -47 0 -21 123 -177 205 -259 187
-187 410 -304 665 -348 119 -20 321 -21 436 -1 380 67 720 317 896 661 98 192
138 355 138 572 0 274 -59 472 -206 700 -29 45 -58 82 -63 82 -5 0 -42 -42
-83 -92z"/>
</g>
</svg>
